<svg width="377" height="266" viewBox="0 0 377 266" fill="none" xmlns="http://www.w3.org/2000/svg">
<path d="M303.402 0.214127H76.1739C65.7161 0.214127 57.2383 8.6919 57.2383 19.1498V246.377C57.2383 256.835 65.7161 265.313 76.1739 265.313H303.402C313.859 265.313 322.337 256.835 322.337 246.377V19.1498C322.337 8.6919 313.859 0.214127 303.402 0.214127Z" fill="#1C1C28"/>
<g filter="url(#filter0_d_5708_77695)">
<path d="M98.8956 102.467H354.527C357.038 102.467 359.446 103.464 361.221 105.24C362.997 107.015 363.995 109.423 363.995 111.935V159.274C363.995 161.785 362.997 164.193 361.221 165.968C359.446 167.744 357.038 168.741 354.527 168.741H98.8956C96.3845 168.741 93.9764 167.744 92.2008 165.968C90.4252 164.193 89.4277 161.785 89.4277 159.274V111.935C89.4277 109.423 90.4252 107.015 92.2008 105.24C93.9764 103.464 96.3845 102.467 98.8956 102.467V102.467Z" fill="#171721"/>
</g>
<path d="M239.019 117.615H189.786C186.649 117.615 184.105 120.159 184.105 123.296C184.105 126.433 186.649 128.977 189.786 128.977H239.019C242.156 128.977 244.7 126.433 244.7 123.296C244.7 120.159 242.156 117.615 239.019 117.615Z" fill="#262636"/>
<path d="M273.103 142.232H189.786C186.649 142.232 184.105 144.776 184.105 147.913C184.105 151.05 186.649 153.594 189.786 153.594H273.103C276.24 153.594 278.784 151.05 278.784 147.913C278.784 144.776 276.24 142.232 273.103 142.232Z" fill="#262636"/>
<circle cx="135.344" cy="135.845" r="19.7668" fill="#222230" stroke="#6CA3FB" stroke-width="2.14982"/>
<circle cx="135.343" cy="135.845" r="14.8493" fill="#6CA3FB"/>
<g filter="url(#filter1_d_5708_77695)">
<path d="M17.4747 183.89H273.106C275.617 183.89 278.025 184.887 279.801 186.663C281.576 188.438 282.574 190.846 282.574 193.357V240.697C282.574 243.208 281.576 245.616 279.801 247.391C278.025 249.167 275.617 250.164 273.106 250.164H17.4747C14.9636 250.164 12.5555 249.167 10.7799 247.391C9.00434 245.616 8.00684 243.208 8.00684 240.697V193.357C8.00684 190.846 9.00434 188.438 10.7799 186.663C12.5555 184.887 14.9636 183.89 17.4747 183.89V183.89Z" fill="#171721"/>
</g>
<path d="M157.598 199.039H108.365C105.228 199.039 102.685 201.583 102.685 204.72C102.685 207.857 105.228 210.401 108.365 210.401H157.598C160.735 210.401 163.279 207.857 163.279 204.72C163.279 201.583 160.735 199.039 157.598 199.039Z" fill="#262636"/>
<path d="M191.682 223.656H108.365C105.228 223.656 102.685 226.2 102.685 229.337C102.685 232.474 105.228 235.018 108.365 235.018H191.682C194.819 235.018 197.363 232.474 197.363 229.337C197.363 226.2 194.819 223.656 191.682 223.656Z" fill="#262636"/>
<circle cx="53.6503" cy="217.538" r="19.7668" fill="#222230" stroke="#A6F4C5" stroke-width="2.14982"/>
<circle cx="53.6501" cy="217.538" r="14.8493" fill="#A6F4C5"/>
<g filter="url(#filter2_d_5708_77695)">
<path d="M273.106 21.0434H17.4747C12.2457 21.0434 8.00684 25.2823 8.00684 30.5112V77.8503C8.00684 83.0793 12.2457 87.3182 17.4747 87.3182H273.106C278.335 87.3182 282.574 83.0793 282.574 77.8503V30.5112C282.574 25.2823 278.335 21.0434 273.106 21.0434Z" fill="#171721"/>
</g>
<path d="M153.81 36.1925H104.577C101.44 36.1925 98.8965 38.7358 98.8965 41.8732C98.8965 45.0105 101.44 47.5539 104.577 47.5539H153.81C156.947 47.5539 159.491 45.0105 159.491 41.8732C159.491 38.7358 156.947 36.1925 153.81 36.1925Z" fill="#262636"/>
<path d="M187.894 60.8093H104.577C101.44 60.8093 98.8965 63.3526 98.8965 66.49C98.8965 69.6274 101.44 72.1707 104.577 72.1707H187.894C191.031 72.1707 193.575 69.6274 193.575 66.49C193.575 63.3526 191.031 60.8093 187.894 60.8093Z" fill="#262636"/>
<circle cx="53.6503" cy="54.1513" r="19.7668" fill="#222230" stroke="#AA6CFB" stroke-width="2.14982"/>
<circle cx="53.6501" cy="54.1512" r="14.8493" fill="#AA6CFB"/>
<defs>
<filter id="filter0_d_5708_77695" x="86.398" y="99.437" width="289.715" height="81.4232" filterUnits="userSpaceOnUse" color-interpolation-filters="sRGB">
<feFlood flood-opacity="0" result="BackgroundImageFix"/>
<feColorMatrix in="SourceAlpha" type="matrix" values="0 0 0 0 0 0 0 0 0 0 0 0 0 0 0 0 0 0 127 0" result="hardAlpha"/>
<feOffset dx="4.54454" dy="4.54454"/>
<feGaussianBlur stdDeviation="3.78712"/>
<feColorMatrix type="matrix" values="0 0 0 0 0.230539 0 0 0 0 0.370572 0 0 0 0 0.482993 0 0 0 0.1 0"/>
<feBlend mode="normal" in2="BackgroundImageFix" result="effect1_dropShadow_5708_77695"/>
<feBlend mode="normal" in="SourceGraphic" in2="effect1_dropShadow_5708_77695" result="shape"/>
</filter>
<filter id="filter1_d_5708_77695" x="0.4326" y="180.86" width="289.715" height="81.4232" filterUnits="userSpaceOnUse" color-interpolation-filters="sRGB">
<feFlood flood-opacity="0" result="BackgroundImageFix"/>
<feColorMatrix in="SourceAlpha" type="matrix" values="0 0 0 0 0 0 0 0 0 0 0 0 0 0 0 0 0 0 127 0" result="hardAlpha"/>
<feOffset dy="4.54454"/>
<feGaussianBlur stdDeviation="3.78712"/>
<feColorMatrix type="matrix" values="0 0 0 0 0.230539 0 0 0 0 0.370572 0 0 0 0 0.482993 0 0 0 0.1 0"/>
<feBlend mode="normal" in2="BackgroundImageFix" result="effect1_dropShadow_5708_77695"/>
<feBlend mode="normal" in="SourceGraphic" in2="effect1_dropShadow_5708_77695" result="shape"/>
</filter>
<filter id="filter2_d_5708_77695" x="0.4326" y="18.0137" width="289.715" height="81.4232" filterUnits="userSpaceOnUse" color-interpolation-filters="sRGB">
<feFlood flood-opacity="0" result="BackgroundImageFix"/>
<feColorMatrix in="SourceAlpha" type="matrix" values="0 0 0 0 0 0 0 0 0 0 0 0 0 0 0 0 0 0 127 0" result="hardAlpha"/>
<feOffset dy="4.54454"/>
<feGaussianBlur stdDeviation="3.78712"/>
<feColorMatrix type="matrix" values="0 0 0 0 0.230539 0 0 0 0 0.370572 0 0 0 0 0.482993 0 0 0 0.1 0"/>
<feBlend mode="normal" in2="BackgroundImageFix" result="effect1_dropShadow_5708_77695"/>
<feBlend mode="normal" in="SourceGraphic" in2="effect1_dropShadow_5708_77695" result="shape"/>
</filter>
</defs>
</svg>
