<svg fill="none" height="24" viewBox="0 0 24 24" width="24" xmlns="http://www.w3.org/2000/svg" xmlns:xlink="http://www.w3.org/1999/xlink"><clipPath id="a"><path d="m5 8h14.7332v8h-14.7332z"/></clipPath><path d="m0 0h24v24h-24z" fill="#ff0420"/><path d="m12 24c6.6274 0 12-5.3726 12-12 0-6.62742-5.3726-12-12-12-6.62742 0-12 5.37258-12 12 0 6.6274 5.37258 12 12 12z" fill="#ff0420"/><g clip-path="url(#a)" fill="#fff"><path d="m8.02963 16c-.89019 0-1.61954-.2074-2.18807-.6222-.56104-.4222-.84156-1.0222-.84156-1.8 0-.163.0187-.363.0561-.6.09725-.5334.23564-1.1741.41518-1.9222.50868-2.03708 1.82152-3.0556 3.93852-3.0556.576 0 1.0922.0963 1.5485.28889.4563.18519.8153.46667 1.0772.84444.2618.37037.3927.81482.3927 1.33337 0 .1555-.0187.3518-.0561.5889-.1122.6592-.2469 1.3-.4039 1.9222-.2619 1.0148-.7144 1.774-1.3578 2.2778-.64332.4962-1.50356.7444-2.58077.7444zm.15709-1.6c.41892 0 .77424-.1222 1.066-.3667.2992-.2444.5124-.6185.63956-1.1222.17212-.6963.30292-1.3037.39272-1.8222.03-.1556.0449-.3148.0449-.4778 0-.67406-.35534-1.0111-1.06598-1.0111-.41891 0-.77798.12222-1.0772.36667-.29174.24443-.5012.61853-.62836 1.12223-.13466.4963-.2693 1.1037-.40396 1.8222-.02992.1481-.04488.3037-.04488.4667 0 .6814.35907 1.0222 1.0772 1.0222z"/><path d="m12.649 15.44c-.0787 0-.1395-.0248-.1825-.0744-.0357-.0567-.0465-.1204-.0322-.1913l1.4813-6.90859c.0143-.07794.0536-.14171.118-.19131s.1324-.0744.204-.0744h2.8551c.7943 0 1.4311.16297 1.9106.48892.4865.32594.7299.79714.7299 1.4136 0 .17718-.0215.36138-.0644.55268-.179.8149-.5403 1.4171-1.0841 1.8069-.5367.3897-1.2738.5845-2.2112.5845h-1.449l-.4937 2.3277c-.0143.0779-.0537.1417-.1181.1913s-.1324.0744-.204.0744zm3.7997-4.0601c.3005 0 .5617-.0815.7835-.2445.229-.1629.3793-.3968.4508-.7015.0215-.1204.0323-.2267.0323-.3188 0-.2055-.0609-.36138-.1825-.46767-.1217-.11337-.3292-.17006-.6226-.17006h-1.288l-.4079 1.90253z"/></g></svg>